<?xml version="1.0" standalone="no"?>
<!DOCTYPE svg PUBLIC "-//W3C//DTD SVG 20010904//EN"
 "http://www.w3.org/TR/2001/REC-SVG-20010904/DTD/svg10.dtd">
<svg version="1.0" xmlns="http://www.w3.org/2000/svg"
 width="256.000000pt" height="256.000000pt" viewBox="0 0 256.000000 256.000000"
 preserveAspectRatio="xMidYMid meet">

<g transform="translate(0.000000,256.000000) scale(0.100000,-0.100000)"
fill="#000000" stroke="none">
<path d="M1095 2521 c-72 -12 -199 -49 -265 -78 l-57 -24 -92 26 c-185 52
-455 85 -529 66 -56 -16 -72 -34 -72 -84 0 -83 79 -360 169 -593 l32 -82 -21
-73 c-30 -109 -36 -202 -17 -290 8 -41 18 -115 22 -165 20 -307 134 -630 297
-841 100 -131 340 -313 411 -313 21 0 37 4 37 10 0 5 -32 52 -70 102 -77 102
-138 214 -193 353 -46 119 -51 135 -37 135 20 0 252 -96 410 -170 85 -40 166
-73 180 -73 14 0 66 19 115 43 185 88 243 113 349 156 60 25 111 42 113 40 9
-8 -84 -225 -137 -320 -29 -52 -81 -131 -116 -175 -35 -45 -64 -83 -64 -86 0
-3 19 -5 42 -5 86 0 282 149 398 303 173 227 268 506 300 877 5 52 14 133 21
180 12 87 6 145 -33 277 -11 37 -9 46 15 100 69 154 167 507 167 601 0 39 -5
53 -26 73 -24 23 -32 24 -137 23 -131 -1 -225 -14 -398 -56 l-127 -30 -67 26
c-137 56 -207 68 -395 72 -96 1 -197 -1 -225 -5z m377 -195 c320 -61 577 -247
711 -513 34 -66 75 -206 77 -264 5 -111 5 -111 -62 0 -101 167 -267 330 -428
419 -81 45 -204 90 -294 107 -91 17 -286 20 -372 4 -302 -53 -569 -245 -743
-534 -35 -58 -66 -105 -69 -105 -14 0 12 181 38 263 100 310 370 544 711 616
116 24 323 28 431 7z m-994 -122 c42 -14 80 -29 84 -33 5 -4 -15 -31 -44 -61
-28 -30 -68 -77 -89 -103 l-39 -49 -11 29 c-43 111 -63 194 -53 225 8 26 60
23 152 -8z m1746 -39 c-1 -55 -28 -146 -54 -185 -9 -13 -14 -10 -32 15 -12 17
-51 60 -87 98 -48 49 -62 70 -53 79 16 16 163 58 197 55 30 -2 30 -2 29 -62z
m-1099 -640 c39 -98 97 -195 149 -249 50 -51 102 -86 128 -86 40 0 141 116
169 193 7 22 23 44 33 49 26 14 116 14 142 0 22 -11 61 -105 71 -168 6 -34 5
-34 -21 -24 -15 5 -55 10 -90 10 -106 0 -226 -76 -226 -144 0 -8 11 -27 23
-42 l24 -27 19 39 c25 52 88 84 162 84 81 0 119 -22 136 -78 13 -45 13 -46 27
-24 8 12 23 22 34 22 48 0 62 65 22 97 -23 18 -45 83 -28 83 5 0 25 -18 45
-40 28 -31 36 -48 36 -78 0 -49 -26 -205 -51 -314 -19 -77 -24 -87 -47 -93
-42 -10 -254 -101 -408 -175 -79 -38 -153 -71 -163 -75 -11 -3 -72 21 -155 60
-164 78 -321 146 -411 177 -75 26 -70 16 -107 203 -31 154 -31 389 -1 525 17
76 75 256 87 267 1 1 0 -52 -2 -119 -5 -131 8 -234 39 -306 11 -24 19 -45 19
-47 0 -2 -22 -17 -48 -34 -62 -39 -94 -74 -87 -93 9 -22 59 -56 90 -62 26 -5
27 -3 21 24 -8 44 38 73 126 78 58 4 73 1 111 -21 24 -14 56 -42 71 -62 15
-19 32 -33 37 -30 13 9 11 99 -3 117 -29 36 -102 77 -146 83 -84 12 -84 11
-77 63 3 26 11 69 17 95 12 54 31 67 99 67 21 0 39 5 39 10 0 7 -20 9 -60 4
-33 -4 -60 -4 -60 -1 0 15 65 187 96 255 l36 77 28 -110 c15 -60 40 -141 55
-180z m574 36 c22 -51 41 -95 41 -97 0 -2 -31 -4 -68 -4 l-68 0 17 68 c10 37
18 85 18 107 1 51 10 41 60 -74z"/>
</g>
</svg>
