<?xml version="1.0" encoding="UTF-8"?>
<svg version="1.1" xmlns="http://www.w3.org/2000/svg" width="500" height="500">
<path d="M0 0 C0.70495605 0.17160645 1.40991211 0.34321289 2.13623047 0.52001953 C36.29418118 9.11133148 67.04791545 28.88307356 86 59 C110.9642546 100.7806872 112.84945667 148.2131095 101.33349609 194.7590332 C100.61215244 197.52641764 99.8306155 200.26353046 99 203 C98.74718262 203.84739746 98.49436523 204.69479492 98.23388672 205.56787109 C95.73147495 212.8371861 91.35858287 217.63615373 86 223 C85.44082886 223.56609985 84.88165771 224.13219971 84.30554199 224.7154541 C79.69309599 229.38340116 75.0381053 234.00773984 70.375 238.625 C67.62980446 241.34334453 64.88812568 244.06516866 62.1484375 246.7890625 C61.53471283 247.39448883 60.92098816 247.99991516 60.28866577 248.62368774 C56.51772939 252.37354991 52.96709029 256.25285259 49.5149231 260.29866028 C48 262 48 262 45.59375 264.09765625 C43.31279889 266.82026211 43.53236535 268.93799624 43.5 272.4375 C43.45012808 277.8174335 42.78050731 280.12976546 39 284 C37.05178027 285.73512487 35.0784805 287.43761785 33.09667969 289.13427734 C29.7098743 292.14801358 26.68822952 295.47559884 23.625 298.8125 C17.69059913 305.19325624 11.65690053 311.45848533 5.5 317.625 C4.77119629 318.35823486 4.04239258 319.09146973 3.29150391 319.84692383 C-0.05793933 323.18755879 -3.44128664 326.42279016 -7.03515625 329.5 C-11.30880191 333.18548111 -15.1156971 337.22954472 -18.9375 341.375 C-20.33496151 342.87460802 -21.73339208 344.3733136 -23.1328125 345.87109375 C-23.79700195 346.58249512 -24.46119141 347.29389648 -25.14550781 348.02685547 C-34.55069583 358.03379722 -34.55069583 358.03379722 -39 361 C-41.04770826 360.8836283 -43.0945024 360.75091575 -45.140625 360.609375 C-56.38194675 361.27402899 -62.60024267 370.41311045 -69.75 378.25 C-71.8954286 380.55700091 -74.05026824 382.85370948 -76.22076416 385.137146 C-77.56162314 386.55219273 -78.88755462 387.98160529 -80.19476318 389.42779541 C-87.4897734 397.22521746 -96.34502008 400.48911208 -106.5 403.125 C-107.44834717 403.37725342 -108.39669434 403.62950684 -109.3737793 403.8894043 C-118.1611567 406.16249607 -127.00455693 407.81366813 -136 409 C-136.65621338 409.0942627 -137.31242676 409.18852539 -137.98852539 409.28564453 C-145.23763986 410.22901666 -152.51214445 410.24252745 -159.8125 410.25 C-160.49708282 410.25100708 -161.18166565 410.25201416 -161.88699341 410.25305176 C-173.48227004 410.24155907 -184.63867466 409.39348693 -196 407 C-196.7007666 406.86078125 -197.4015332 406.7215625 -198.12353516 406.578125 C-208.72919436 404.43064678 -218.28962674 400.72490022 -228 396 C-228.70302246 395.66339355 -229.40604492 395.32678711 -230.13037109 394.97998047 C-251.93007261 384.43205535 -269.98526376 368.47475312 -283 348 C-283.35787598 347.43845215 -283.71575195 346.8769043 -284.08447266 346.29833984 C-299.42809258 321.79519371 -305.45348406 294.11833311 -305.3125 265.4375 C-305.31034485 264.64597534 -305.3081897 263.85445068 -305.30596924 263.03894043 C-305.25121089 250.47490758 -304.63608716 238.32099916 -302 226 C-301.81195801 225.09024414 -301.62391602 224.18048828 -301.43017578 223.24316406 C-295.36946702 194.68984879 -284.39429921 167.19701816 -268.62890625 142.609375 C-267.24809821 140.3974331 -266.09118059 138.23686275 -265 135.875 C-262.39122654 130.44194571 -258.62894011 125.78217842 -255 121 C-254.22269531 119.96488281 -253.44539063 118.92976563 -252.64453125 117.86328125 C-238.29147769 98.8728656 -222.32059652 80.26226259 -204 65 C-203.17653076 64.31381592 -203.17653076 64.31381592 -202.33642578 63.61376953 C-187.01608377 50.89431346 -171.51117834 39.5121938 -154 30 C-152.52031738 29.18921997 -152.52031738 29.18921997 -151.01074219 28.36206055 C-127.11604296 15.33120331 -102.74901165 5.5288871 -76 0 C-75.17532227 -0.17644043 -74.35064453 -0.35288086 -73.50097656 -0.53466797 C-50.51561513 -5.25429143 -22.83969414 -5.6725676 0 0 Z " fill="#030100" transform="translate(349,47)"/>
<path d="M0 0 C0.70495605 0.17160645 1.40991211 0.34321289 2.13623047 0.52001953 C36.29418118 9.11133148 67.04791545 28.88307356 86 59 C110.9642546 100.7806872 112.84945667 148.2131095 101.33349609 194.7590332 C100.61215244 197.52641764 99.8306155 200.26353046 99 203 C98.74718262 203.84739746 98.49436523 204.69479492 98.23388672 205.56787109 C95.73147495 212.8371861 91.35858287 217.63615373 86 223 C85.44082886 223.56609985 84.88165771 224.13219971 84.30554199 224.7154541 C79.69309599 229.38340116 75.0381053 234.00773984 70.375 238.625 C67.62980446 241.34334453 64.88812568 244.06516866 62.1484375 246.7890625 C61.53471283 247.39448883 60.92098816 247.99991516 60.28866577 248.62368774 C56.54321308 252.34820863 53.00906023 256.19845671 49.57290649 260.21054077 C48.0983599 261.88809822 46.66874878 263.51426904 45 265 C44.34 265 43.68 265 43 265 C42.99853344 263.98840191 42.99706688 262.97680382 42.99555588 261.93455124 C42.95898896 237.33975669 42.89957636 212.74509862 42.81609726 188.15041733 C42.77625861 176.25668862 42.74389066 164.36302655 42.72900391 152.46923828 C42.71601239 142.10469801 42.68911182 131.74030404 42.64538693 121.37584615 C42.62271582 115.88602649 42.6070927 110.39638766 42.60811615 104.90651703 C42.60885943 99.74201498 42.59104271 94.57791354 42.55883217 89.41351509 C42.55029541 87.51562132 42.54860868 85.6176828 42.55419731 83.71977806 C42.56080211 81.13267949 42.54300229 78.54686871 42.51898193 75.9598999 C42.52674235 75.20503445 42.53450277 74.45016901 42.54249835 73.67242885 C42.48932479 70.44793171 42.18694366 68.3051461 40.49016571 65.53551388 C36.95153882 63.35348612 33.67194077 63.43703697 29.6383667 63.47187805 C28.78713108 63.46352139 27.93589547 63.45516473 27.05886483 63.44655484 C24.2014433 63.42354317 21.34480294 63.42919564 18.48730469 63.43481445 C16.4405989 63.42448478 14.39390091 63.41249679 12.34721375 63.39897156 C6.78298057 63.36787023 1.21900613 63.3626487 -4.34530354 63.36390328 C-8.98985324 63.36307376 -13.63434653 63.35083746 -18.27887893 63.33895367 C-29.23820121 63.31155681 -40.19738899 63.30625703 -51.15673828 63.3137207 C-62.46085664 63.32095887 -73.76435089 63.28756617 -85.06833386 63.23466331 C-94.77295261 63.19088529 -104.47736975 63.17416655 -114.18208575 63.1786992 C-119.97841437 63.18102197 -125.77423913 63.17268988 -131.57047272 63.13762856 C-137.02412486 63.10567396 -142.47674452 63.10748177 -147.93041039 63.13507271 C-149.9298598 63.1395284 -151.92937728 63.13207828 -153.9287281 63.11172867 C-165.58003736 62.4958315 -165.58003736 62.4958315 -175.77729797 67.08811951 C-176.88725787 68.36180701 -177.96282791 69.66637154 -179 71 C-180.22788244 72.21235048 -181.47056709 73.40986897 -182.72666931 74.59295654 C-184.01809846 75.87555586 -185.30693108 77.16077352 -186.59350586 78.44824219 C-187.66086472 79.51056313 -187.66086472 79.51056313 -188.74978638 80.59434509 C-191.07409477 82.90924161 -193.39469674 85.22780817 -195.71484375 87.546875 C-197.33761948 89.16643442 -198.96046916 90.78591975 -200.58338928 92.40533447 C-203.96988512 95.78586578 -207.35433124 99.16843408 -210.73754883 102.55224609 C-215.07930667 106.89410611 -219.42793587 111.22901401 -223.77831173 115.56223679 C-227.12476676 118.89760139 -230.46669546 122.2374725 -233.80734444 125.57865143 C-235.40976318 127.17988825 -237.01380801 128.77949947 -238.61948967 130.37746429 C-240.85516818 132.6033907 -243.08447586 134.83550838 -245.31225586 137.06933594 C-245.97869614 137.73015671 -246.64513641 138.39097748 -247.33177185 139.07182312 C-247.93581848 139.68006424 -248.53986511 140.28830536 -249.16221619 140.91497803 C-249.68923095 141.44144802 -250.21624571 141.96791801 -250.75923061 142.51034164 C-253.81413424 146.17803587 -253.14529753 150.7783636 -253.14044189 155.27502441 C-253.14341302 156.12893343 -253.14638414 156.98284245 -253.1494453 157.86262751 C-253.15814285 160.73460004 -253.15964142 163.60653095 -253.16113281 166.47851562 C-253.16576012 168.5331786 -253.17078466 170.58784072 -253.17617798 172.64250183 C-253.18930963 178.23119003 -253.19574806 183.81986621 -253.20018864 189.40856743 C-253.20311723 192.89699847 -253.20722156 196.38542621 -253.21169281 199.87385559 C-253.22536778 210.77949366 -253.23503528 221.6851242 -253.2388947 232.59077024 C-253.24338006 245.19697044 -253.26095011 257.80306246 -253.2898953 270.40922976 C-253.3114738 280.14344142 -253.32159688 289.87762255 -253.32293582 299.61185789 C-253.32398631 305.4308001 -253.32994612 311.24964062 -253.34775543 317.06855774 C-253.36417067 322.53831133 -253.36642364 328.00788605 -253.35761642 333.47765541 C-253.35684261 335.4888742 -253.36123376 337.50010236 -253.37107468 339.51129723 C-253.38369046 342.24940637 -253.37797438 344.98687196 -253.36749268 347.72497559 C-253.37554908 348.5273989 -253.38360548 349.32982221 -253.39190602 350.15656137 C-253.36601018 353.03367243 -253.30704012 355.40646627 -251.96938229 357.99226856 C-248.80858108 359.60964817 -245.59160143 359.4208069 -242.12239075 359.39872742 C-241.31128411 359.40537424 -240.50017746 359.41202107 -239.66449183 359.41886932 C-236.93741575 359.43757212 -234.21077562 359.43488917 -231.48364258 359.43237305 C-229.53247962 359.44138577 -227.58132235 359.45171177 -225.63017273 359.46325684 C-220.32471964 359.49091049 -215.01937373 359.50012269 -209.71385789 359.50611091 C-204.17245093 359.51547285 -198.63112472 359.5416744 -193.08976746 359.56611633 C-182.59259061 359.60984514 -172.09542938 359.63835289 -161.59818906 359.66143972 C-149.64908649 359.68845722 -137.70006491 359.73237082 -125.75102007 359.77772844 C-101.16739057 359.87066611 -76.58373567 359.94230503 -52 360 C-52.93453444 361.09909472 -53.87035789 362.1970935 -54.80670166 363.29464722 C-55.32769566 363.90621611 -55.84868965 364.517785 -56.38547134 365.14788628 C-60.65330435 370.04374988 -65.29759365 374.60364784 -69.86621094 379.21630859 C-71.12033822 380.48701454 -72.36907384 381.76306484 -73.61230469 383.04443359 C-83.73579241 393.47542293 -92.26845673 399.43097468 -106.5 403.125 C-107.44834717 403.37725342 -108.39669434 403.62950684 -109.3737793 403.8894043 C-118.1611567 406.16249607 -127.00455693 407.81366813 -136 409 C-136.65621338 409.0942627 -137.31242676 409.18852539 -137.98852539 409.28564453 C-145.23763986 410.22901666 -152.51214445 410.24252745 -159.8125 410.25 C-160.49708282 410.25100708 -161.18166565 410.25201416 -161.88699341 410.25305176 C-173.48227004 410.24155907 -184.63867466 409.39348693 -196 407 C-196.7007666 406.86078125 -197.4015332 406.7215625 -198.12353516 406.578125 C-208.72919436 404.43064678 -218.28962674 400.72490022 -228 396 C-228.70302246 395.66339355 -229.40604492 395.32678711 -230.13037109 394.97998047 C-251.93007261 384.43205535 -269.98526376 368.47475312 -283 348 C-283.35787598 347.43845215 -283.71575195 346.8769043 -284.08447266 346.29833984 C-299.42809258 321.79519371 -305.45348406 294.11833311 -305.3125 265.4375 C-305.31034485 264.64597534 -305.3081897 263.85445068 -305.30596924 263.03894043 C-305.25121089 250.47490758 -304.63608716 238.32099916 -302 226 C-301.81195801 225.09024414 -301.62391602 224.18048828 -301.43017578 223.24316406 C-295.36946702 194.68984879 -284.39429921 167.19701816 -268.62890625 142.609375 C-267.24809821 140.3974331 -266.09118059 138.23686275 -265 135.875 C-262.39122654 130.44194571 -258.62894011 125.78217842 -255 121 C-254.22269531 119.96488281 -253.44539063 118.92976563 -252.64453125 117.86328125 C-238.29147769 98.8728656 -222.32059652 80.26226259 -204 65 C-203.17653076 64.31381592 -203.17653076 64.31381592 -202.33642578 63.61376953 C-187.01608377 50.89431346 -171.51117834 39.5121938 -154 30 C-152.52031738 29.18921997 -152.52031738 29.18921997 -151.01074219 28.36206055 C-127.11604296 15.33120331 -102.74901165 5.5288871 -76 0 C-75.17532227 -0.17644043 -74.35064453 -0.35288086 -73.50097656 -0.53466797 C-50.51561513 -5.25429143 -22.83969414 -5.6725676 0 0 Z " fill="#F46B00" transform="translate(349,47)"/>
<path d="M0 0 C62.04 0 124.08 0 188 0 C188 62.04 188 124.08 188 188 C125.96 188 63.92 188 0 188 C0 125.96 0 63.92 0 0 Z " fill="#B38E6A" transform="translate(110,204)"/>
<path d="M0 0 C1.42162764 22.42327603 2.46873067 44.83888023 3.10873032 67.29852676 C3.41431458 77.73776761 3.82894889 88.14834747 4.52636719 98.56933594 C9.40092835 172.83916528 9.40092835 172.83916528 -13.58789062 199.17773438 C-26.69284497 213.79291555 -41.87474091 226.45670467 -57.62714767 238.1125145 C-60.06566682 239.78001602 -60.06566682 239.78001602 -61 242 C-61.66 242 -62.32 242 -63 242 C-63.18689869 218.52158643 -63.32796371 195.04328438 -63.41449738 171.5642767 C-63.45574492 160.66247119 -63.51197746 149.76112794 -63.60351562 138.85961914 C-63.68326442 129.35760441 -63.73486837 119.85592444 -63.75270796 110.35358435 C-63.76313602 105.3221588 -63.78763372 100.29169095 -63.84584045 95.26057243 C-63.90020054 90.52349716 -63.91688128 85.7877726 -63.90486145 81.05041504 C-63.90705981 79.31333127 -63.92294112 77.5762017 -63.9536438 75.83938789 C-64.17385282 62.73822955 -64.17385282 62.73822955 -61.36358547 58.5768137 C-59.33849934 56.79743823 -57.29093745 55.41275535 -55 54 C-53.96844078 53.067988 -52.96374796 52.10496373 -51.99464417 51.10816956 C-51.53072769 50.64418259 -51.06681122 50.18019562 -50.58883667 49.70214844 C-49.87692673 48.98248901 -49.87692673 48.98248901 -49.15063477 48.24829102 C-48.62438004 47.72057602 -48.09812531 47.19286102 -47.55592346 46.64915466 C-46.43086518 45.52033358 -45.30696154 44.39036066 -44.18414497 43.25930977 C-42.4087929 41.47105589 -40.63021414 39.68606639 -38.85081482 37.90184021 C-35.08520131 34.12488483 -31.32358063 30.34396849 -27.5625 26.5625 C-23.17787692 22.15427755 -18.79163348 17.7476923 -14.40119743 13.34525871 C-12.64583467 11.58339734 -10.89349794 9.81856319 -9.14125061 8.05360413 C-8.07551466 6.98423924 -7.00964007 5.91501248 -5.94360352 4.84594727 C-5.45482727 4.3520047 -4.96605103 3.85806213 -4.46246338 3.34915161 C-1.11384323 0 -1.11384323 0 0 0 Z " fill="#B28D6A" transform="translate(376,138)"/>
<path d="M0 0 C4.99411706 0.1843637 9.98904729 0.19855312 14.98604178 0.23273683 C24.39991021 0.32201756 33.80372523 0.55869121 43.21321195 0.85187203 C53.9450147 1.17881486 64.67736224 1.33614166 75.41292417 1.48103964 C97.45098022 1.78219594 119.4800564 2.29047439 141.51041007 2.9404242 C140.7132508 3.83567307 139.91609153 4.73092195 139.09477592 5.65329957 C136.3071085 8.89653319 133.77212707 12.27250228 131.25526786 15.72937989 C114.51953908 38.50726652 94.23535515 64.31020102 64.77671599 68.81837487 C42.29932982 71.62006725 19.3627334 70.28493164 -3.17445838 68.90189445 C-13.59299249 68.27419231 -24.01412163 67.98165187 -34.44700253 67.70822251 C-55.81561565 67.14111387 -77.15014525 66.1813695 -98.48958993 64.9404242 C-97.54403775 63.82789593 -96.59713313 62.71651705 -95.64966989 61.60561585 C-95.12250973 60.98659205 -94.59534957 60.36756825 -94.05221486 59.72978616 C-91.94658379 57.31862782 -89.70309139 55.07701797 -87.41537118 52.8388617 C-86.04348641 51.48534608 -86.04348641 51.48534608 -84.6438868 50.1044867 C-83.21652916 48.7036161 -81.78913903 47.30277337 -80.35848641 45.90526795 C-78.95635922 44.53347123 -77.56078485 43.15498696 -76.16537118 41.7763617 C-75.33948495 40.96731385 -74.51359872 40.158266 -73.66268563 39.32470155 C-71.47230578 37.08487905 -71.47230578 37.08487905 -70.17534566 34.7121861 C-52.60732657 5.82640803 -32.34015587 -1.4008795 0 0 Z " fill="#66492C" transform="translate(222.4895899295807,123.05957579612732)"/>
</svg>
