<?xml version="1.0" encoding="UTF-8"?>
<!DOCTYPE svg PUBLIC "-//W3C//DTD SVG 1.1//EN" "http://www.w3.org/Graphics/SVG/1.1/DTD/svg11.dtd">
<svg xmlns="http://www.w3.org/2000/svg" version="1.1" width="256px" height="256px" style="shape-rendering:geometricPrecision; text-rendering:geometricPrecision; image-rendering:optimizeQuality; fill-rule:evenodd; clip-rule:evenodd" xmlns:xlink="http://www.w3.org/1999/xlink">
<g><path style="opacity:0.999" fill="#f4ebdd" d="M 116.5,0.5 C 169.004,-1.50297 209.171,19.497 237,63.5C 254.347,94.8529 258.347,127.853 249,162.5C 231.99,213.844 196.823,244.011 143.5,253C 87.6713,257.172 45.5046,236.005 17,189.5C 0.585193,158.292 -3.08147,125.625 6,91.5C 24.3653,38.6263 61.1986,8.29295 116.5,0.5 Z"/></g>
<g><path style="opacity:1" fill="#575a4d" d="M 189.5,50.5 C 188.791,51.404 187.791,51.7373 186.5,51.5C 186.5,52.5 186.5,53.5 186.5,54.5C 176.721,56.3641 167.054,59.0307 157.5,62.5C 158.34,63.735 159.34,64.735 160.5,65.5C 159.89,66.391 159.557,67.391 159.5,68.5C 152.998,66.2079 146.332,64.5413 139.5,63.5C 137.735,62.5386 135.735,62.2053 133.5,62.5C 124.962,61.1831 116.295,61.1831 107.5,62.5C 106.702,62.0431 106.369,61.3764 106.5,60.5C 120.777,56.6704 135.111,56.6704 149.5,60.5C 151.973,60.2986 154.306,59.632 156.5,58.5C 140.936,52.262 124.936,50.9286 108.5,54.5C 107.5,53.8333 106.5,53.1667 105.5,52.5C 115.402,48.7688 125.735,47.6021 136.5,49C 145.343,50.5441 154.01,52.7108 162.5,55.5C 171.469,53.5068 180.469,51.8402 189.5,50.5 Z"/></g>
<g><path style="opacity:1" fill="#5c6053" d="M 105.5,52.5 C 106.5,53.1667 107.5,53.8333 108.5,54.5C 105.036,55.4971 101.703,56.9971 98.5,59C 100.833,61.5045 103.499,62.0045 106.5,60.5C 106.369,61.3764 106.702,62.0431 107.5,62.5C 116.295,61.1831 124.962,61.1831 133.5,62.5C 110.651,60.5026 91.1514,67.5026 75,83.5C 74.5357,84.0944 74.369,84.7611 74.5,85.5C 66.87,93.4268 61.87,102.76 59.5,113.5C 59.6309,112.624 59.2975,111.957 58.5,111.5C 57.1408,112.624 56.1408,113.958 55.5,115.5C 56.2854,111.138 57.2854,106.804 58.5,102.5C 52.831,88.505 48.331,74.1717 45,59.5C 44.3333,57.1667 44.3333,54.8333 45,52.5C 45.7504,51.8742 46.5838,51.3742 47.5,51C 62.6475,50.1628 77.4809,51.9961 92,56.5C 96.2889,54.4693 100.789,53.1359 105.5,52.5 Z"/></g>
<g><path style="opacity:1" fill="#7e5e63" d="M 106.5,60.5 C 103.499,62.0045 100.833,61.5045 98.5,59C 101.703,56.9971 105.036,55.4971 108.5,54.5C 124.936,50.9286 140.936,52.262 156.5,58.5C 154.306,59.632 151.973,60.2986 149.5,60.5C 135.111,56.6704 120.777,56.6704 106.5,60.5 Z"/></g>
<g><path style="opacity:1" fill="#805f64" d="M 49.5,54.5 C 65.75,54.0827 81.4167,56.916 96.5,63C 91.8737,65.8965 87.0404,68.3965 82,70.5C 77.6623,68.6279 73.1623,67.1279 68.5,66C 58.9389,64.2602 55.7723,68.0936 59,77.5C 60.1959,82.2545 61.6959,86.9212 63.5,91.5C 63.1964,93.4405 62.3631,95.1072 61,96.5C 55.2127,82.9805 51.3794,68.9805 49.5,54.5 Z"/></g>
<g><path style="opacity:1" fill="#7f5e63" d="M 186.5,54.5 C 192.833,54.5 199.167,54.5 205.5,54.5C 204.317,69.2071 200.484,83.2071 194,96.5C 192.492,94.9826 191.658,93.1493 191.5,91C 195.606,83.6374 196.939,75.804 195.5,67.5C 187.481,66.0392 179.814,67.0392 172.5,70.5C 168.519,68.8691 164.519,67.2025 160.5,65.5C 159.34,64.735 158.34,63.735 157.5,62.5C 167.054,59.0307 176.721,56.3641 186.5,54.5 Z"/></g>
<g><path style="opacity:1" fill="#f3c3cd" d="M 133.5,62.5 C 135.735,62.2053 137.735,62.5386 139.5,63.5C 135.392,66.0572 131.058,68.3906 126.5,70.5C 126.167,71.1667 125.833,71.8333 125.5,72.5C 119.224,73.8533 113.557,75.8533 108.5,78.5C 107.914,78.2907 107.414,77.9574 107,77.5C 105.352,78.717 103.519,79.5503 101.5,80C 101.833,80.3333 102.167,80.6667 102.5,81C 100.048,80.7097 97.8809,80.2097 96,79.5C 93.5442,83.2044 90.2108,84.5377 86,83.5C 84.0609,85.2358 81.7276,86.2358 79,86.5C 76.6337,85.0615 76.1337,85.5615 77.5,88C 76.5,88.6667 75.5,88.6667 74.5,88C 75.7736,87.0228 75.7736,86.1894 74.5,85.5C 74.369,84.7611 74.5357,84.0944 75,83.5C 91.1514,67.5026 110.651,60.5026 133.5,62.5 Z"/></g>
<g><path style="opacity:1" fill="#efbac5" d="M 139.5,63.5 C 146.332,64.5413 152.998,66.2079 159.5,68.5C 161.167,69.8333 162.833,71.1667 164.5,72.5C 162.533,72.7394 160.699,72.4061 159,71.5C 156.328,73.9183 153.161,75.4183 149.5,76C 147.833,77 146.167,78 144.5,79C 145.381,79.7083 146.047,80.5416 146.5,81.5C 145.833,81.5 145.167,81.5 144.5,81.5C 105.948,75.1933 77.7814,89.5266 60,124.5C 59.5014,120.848 59.3347,117.182 59.5,113.5C 61.87,102.76 66.87,93.4268 74.5,85.5C 75.7736,86.1894 75.7736,87.0228 74.5,88C 75.5,88.6667 76.5,88.6667 77.5,88C 76.1337,85.5615 76.6337,85.0615 79,86.5C 81.7276,86.2358 84.0609,85.2358 86,83.5C 90.2108,84.5377 93.5442,83.2044 96,79.5C 97.8809,80.2097 100.048,80.7097 102.5,81C 102.167,80.6667 101.833,80.3333 101.5,80C 103.519,79.5503 105.352,78.717 107,77.5C 107.414,77.9574 107.914,78.2907 108.5,78.5C 113.557,75.8533 119.224,73.8533 125.5,72.5C 125.833,71.8333 126.167,71.1667 126.5,70.5C 131.058,68.3906 135.392,66.0572 139.5,63.5 Z"/></g>
<g><path style="opacity:1" fill="#ebe3d6" d="M 62.5,69.5 C 68.0782,70.3592 73.4115,72.0259 78.5,74.5C 74.4718,78.8593 70.4718,83.1927 66.5,87.5C 64.5493,84.046 63.0493,80.3794 62,76.5C 61.2967,74.0709 61.4634,71.7375 62.5,69.5 Z"/></g>
<g><path style="opacity:1" fill="#f1afbf" d="M 164.5,72.5 C 175.5,77.5 183.5,85.5 188.5,96.5C 187.211,95.4991 185.878,95.6658 184.5,97C 184.957,97.414 185.291,97.914 185.5,98.5C 184.271,99.2811 182.938,99.7811 181.5,100C 180.748,100.671 180.414,101.504 180.5,102.5C 170.776,92.9677 159.443,85.9677 146.5,81.5C 146.047,80.5416 145.381,79.7083 144.5,79C 146.167,78 147.833,77 149.5,76C 153.161,75.4183 156.328,73.9183 159,71.5C 160.699,72.4061 162.533,72.7394 164.5,72.5 Z"/></g>
<g><path style="opacity:1" fill="#815e64" d="M 141.5,84.5 C 142.209,85.404 143.209,85.7373 144.5,85.5C 148.431,95.8594 149.431,106.526 147.5,117.5C 145.665,124.329 142.331,130.495 137.5,136C 136.167,136.667 134.833,136.667 133.5,136C 119.46,121.702 113.794,104.536 116.5,84.5C 124.805,83.3487 133.138,83.3487 141.5,84.5 Z"/></g>
<g><path style="opacity:1" fill="#805e63" d="M 77.5,134.5 C 77.451,161.014 84.1177,185.681 97.5,208.5C 97.1667,208.833 96.8333,209.167 96.5,209.5C 79.5945,195.714 68.7612,178.047 64,156.5C 63.646,151.611 62.8127,146.944 61.5,142.5C 61.1033,137.041 61.6033,131.708 63,126.5C 68.9238,114.237 77.4238,104.071 88.5,96C 89.1667,95.3333 89.8333,95.3333 90.5,96C 82.2811,107.49 77.9477,120.323 77.5,134.5 Z"/></g>
<g><path style="opacity:1" fill="#f0e8da" d="M 158.5,124.5 C 159.496,124.414 160.329,124.748 161,125.5C 163.202,129.606 164.702,133.94 165.5,138.5C 158.385,136.478 151.719,137.312 145.5,141C 140.65,144.192 140.316,147.692 144.5,151.5C 148.241,143.933 154.241,141.433 162.5,144C 165.642,145.45 167.308,147.95 167.5,151.5C 169.13,150.102 170.964,149.102 173,148.5C 173.667,146.833 173.667,145.167 173,143.5C 171.185,141.9 170.018,139.9 169.5,137.5C 170.002,136.479 170.668,136.312 171.5,137C 173.801,139.109 175.468,141.609 176.5,144.5C 175.111,153.613 173.277,162.613 171,171.5C 156.765,177.248 142.765,183.581 129,190.5C 115.458,183.812 101.625,177.812 87.5,172.5C 85.6534,169.798 84.4867,166.798 84,163.5C 82.8391,157.536 82.0058,151.536 81.5,145.5C 80.6187,131.829 83.1187,118.829 89,106.5C 87.5859,116.758 88.7526,126.758 92.5,136.5C 91.2392,138.993 89.2392,140.826 86.5,142C 82.3414,145.199 82.6747,147.865 87.5,150C 88.7932,150.49 90.1266,150.657 91.5,150.5C 91.7526,145.266 94.586,142.933 100,143.5C 106.363,143.431 111.196,146.097 114.5,151.5C 116.339,149.473 116.839,147.14 116,144.5C 111.84,139.003 106.34,136.67 99.5,137.5C 99.3054,133.085 99.8054,128.751 101,124.5C 102.444,122.845 104.278,122.178 106.5,122.5C 108.527,122.662 110.527,122.495 112.5,122C 109.722,120.608 106.722,120.108 103.5,120.5C 103.5,119.5 103.5,118.5 103.5,117.5C 105.073,111.02 107.74,105.02 111.5,99.5C 113.715,112.327 118.548,123.994 126,134.5C 128.489,137.832 131.656,140.166 135.5,141.5C 138.655,140.85 141.155,139.183 143,136.5C 145.293,132.748 147.46,128.914 149.5,125C 152.482,124.502 155.482,124.335 158.5,124.5 Z"/></g>
<g><path style="opacity:1" fill="#55584b" d="M 144.5,81.5 C 144.389,82.1174 144.056,82.6174 143.5,83C 145.5,83.3333 147.5,83.6667 149.5,84C 148.069,84.4652 146.903,85.2986 146,86.5C 144.951,84.8934 143.451,84.2267 141.5,84.5C 133.138,83.3487 124.805,83.3487 116.5,84.5C 113.794,104.536 119.46,121.702 133.5,136C 134.833,136.667 136.167,136.667 137.5,136C 142.331,130.495 145.665,124.329 147.5,117.5C 147.343,118.873 147.51,120.207 148,121.5C 148.498,119.456 149.665,118.122 151.5,117.5C 150.962,119.117 150.629,120.784 150.5,122.5C 153.5,122.5 156.5,122.5 159.5,122.5C 159.167,123.167 158.833,123.833 158.5,124.5C 155.482,124.335 152.482,124.502 149.5,125C 147.46,128.914 145.293,132.748 143,136.5C 141.155,139.183 138.655,140.85 135.5,141.5C 131.656,140.166 128.489,137.832 126,134.5C 118.548,123.994 113.715,112.327 111.5,99.5C 107.74,105.02 105.073,111.02 103.5,117.5C 102.566,118.568 102.232,119.901 102.5,121.5C 104.099,121.232 105.432,121.566 106.5,122.5C 104.278,122.178 102.444,122.845 101,124.5C 99.8054,128.751 99.3054,133.085 99.5,137.5C 106.34,136.67 111.84,139.003 116,144.5C 116.839,147.14 116.339,149.473 114.5,151.5C 111.196,146.097 106.363,143.431 100,143.5C 94.586,142.933 91.7526,145.266 91.5,150.5C 90.1266,150.657 88.7932,150.49 87.5,150C 82.6747,147.865 82.3414,145.199 86.5,142C 89.2392,140.826 91.2392,138.993 92.5,136.5C 88.7526,126.758 87.5859,116.758 89,106.5C 83.1187,118.829 80.6187,131.829 81.5,145.5C 80.6762,141.688 80.1762,137.688 80,133.5C 79.6667,132.833 79.3333,132.167 79,131.5C 78.7679,132.737 78.2679,133.737 77.5,134.5C 77.9477,120.323 82.2811,107.49 90.5,96C 89.8333,95.3333 89.1667,95.3333 88.5,96C 77.4238,104.071 68.9238,114.237 63,126.5C 61.6033,131.708 61.1033,137.041 61.5,142.5C 61.6621,144.527 61.4955,146.527 61,148.5C 60.1482,147.429 59.3149,146.429 58.5,145.5C 57.5002,135.504 56.5002,125.504 55.5,115.5C 56.1408,113.958 57.1408,112.624 58.5,111.5C 59.2975,111.957 59.6309,112.624 59.5,113.5C 59.3347,117.182 59.5014,120.848 60,124.5C 77.7814,89.5266 105.948,75.1933 144.5,81.5 Z"/></g>
<g><path style="opacity:1" fill="#805e63" d="M 108.5,85.5 C 109.833,85.5 111.167,85.5 112.5,85.5C 111.904,89.9707 110.071,93.9707 107,97.5C 101.595,108.054 97.5947,119.054 95,130.5C 93.0283,119.842 93.0283,109.175 95,98.5C 96.0269,95.2458 97.5269,92.2458 99.5,89.5C 102.601,88.1432 105.601,86.8099 108.5,85.5 Z"/></g>
<g><path style="opacity:1" fill="#e5ded1" d="M 159.5,122.5 C 156.5,122.5 153.5,122.5 150.5,122.5C 150.629,120.784 150.962,119.117 151.5,117.5C 151.804,114.478 152.304,111.478 153,108.5C 155.435,113.038 157.602,117.704 159.5,122.5 Z"/></g>
<g><path style="opacity:1" fill="#a9a69c" d="M 103.5,117.5 C 103.5,118.5 103.5,119.5 103.5,120.5C 106.722,120.108 109.722,120.608 112.5,122C 110.527,122.495 108.527,122.662 106.5,122.5C 105.432,121.566 104.099,121.232 102.5,121.5C 102.232,119.901 102.566,118.568 103.5,117.5 Z"/></g>
<g><path style="opacity:1" fill="#4f5045" d="M 189.5,50.5 C 195.176,50.3339 200.843,50.5006 206.5,51C 208.99,52.128 209.99,54.128 209.5,57C 206.992,72.8562 202.659,88.1896 196.5,103C 198.652,108.29 199.652,113.79 199.5,119.5C 199.171,140.154 195.338,160.154 188,179.5C 180.86,195.624 169.694,208.124 154.5,217C 152.098,217.814 149.765,217.647 147.5,216.5C 157.696,205.104 164.363,192.104 167.5,177.5C 154.378,182.894 141.378,188.561 128.5,194.5C 115.622,188.561 102.622,182.894 89.5,177.5C 92.1906,192.215 98.6906,205.215 109,216.5C 109.483,217.448 109.649,218.448 109.5,219.5C 107.801,219.66 106.134,219.494 104.5,219C 76.9214,202.377 61.5881,177.877 58.5,145.5C 59.3149,146.429 60.1482,147.429 61,148.5C 61.4955,146.527 61.6621,144.527 61.5,142.5C 62.8127,146.944 63.646,151.611 64,156.5C 68.7612,178.047 79.5945,195.714 96.5,209.5C 96.8333,209.167 97.1667,208.833 97.5,208.5C 84.1177,185.681 77.451,161.014 77.5,134.5C 78.2679,133.737 78.7679,132.737 79,131.5C 79.3333,132.167 79.6667,132.833 80,133.5C 80.1762,137.688 80.6762,141.688 81.5,145.5C 82.0058,151.536 82.8391,157.536 84,163.5C 84.4867,166.798 85.6534,169.798 87.5,172.5C 101.625,177.812 115.458,183.812 129,190.5C 142.765,183.581 156.765,177.248 171,171.5C 173.277,162.613 175.111,153.613 176.5,144.5C 175.468,141.609 173.801,139.109 171.5,137C 170.668,136.312 170.002,136.479 169.5,137.5C 170.018,139.9 171.185,141.9 173,143.5C 173.667,145.167 173.667,146.833 173,148.5C 170.964,149.102 169.13,150.102 167.5,151.5C 167.308,147.95 165.642,145.45 162.5,144C 154.241,141.433 148.241,143.933 144.5,151.5C 140.316,147.692 140.65,144.192 145.5,141C 151.719,137.312 158.385,136.478 165.5,138.5C 164.702,133.94 163.202,129.606 161,125.5C 160.329,124.748 159.496,124.414 158.5,124.5C 158.833,123.833 159.167,123.167 159.5,122.5C 157.602,117.704 155.435,113.038 153,108.5C 152.304,111.478 151.804,114.478 151.5,117.5C 149.665,118.122 148.498,119.456 148,121.5C 147.51,120.207 147.343,118.873 147.5,117.5C 149.431,106.526 148.431,95.8594 144.5,85.5C 143.209,85.7373 142.209,85.404 141.5,84.5C 143.451,84.2267 144.951,84.8934 146,86.5C 146.903,85.2986 148.069,84.4652 149.5,84C 147.5,83.6667 145.5,83.3333 143.5,83C 144.056,82.6174 144.389,82.1174 144.5,81.5C 145.167,81.5 145.833,81.5 146.5,81.5C 159.443,85.9677 170.776,92.9677 180.5,102.5C 185.893,109.069 190.726,116.069 195,123.5C 195.809,113.736 193.642,104.736 188.5,96.5C 183.5,85.5 175.5,77.5 164.5,72.5C 162.833,71.1667 161.167,69.8333 159.5,68.5C 159.557,67.391 159.89,66.391 160.5,65.5C 164.519,67.2025 168.519,68.8691 172.5,70.5C 179.814,67.0392 187.481,66.0392 195.5,67.5C 196.939,75.804 195.606,83.6374 191.5,91C 191.658,93.1493 192.492,94.9826 194,96.5C 200.484,83.2071 204.317,69.2071 205.5,54.5C 199.167,54.5 192.833,54.5 186.5,54.5C 186.5,53.5 186.5,52.5 186.5,51.5C 187.791,51.7373 188.791,51.404 189.5,50.5 Z"/></g>
<g><path style="opacity:1" fill="#7f5d63" d="M 176.5,105.5 C 178.853,107.101 181.02,109.101 183,111.5C 186.919,117.67 190.586,124.003 194,130.5C 193.995,157.186 185.662,180.852 169,201.5C 165.333,204.5 161.667,207.5 158,210.5C 160.074,205.362 162.74,200.362 166,195.5C 175.841,172.598 181.175,148.931 182,124.5C 180.229,118.143 178.396,111.81 176.5,105.5 Z"/></g>
<g><path style="opacity:1" fill="#eda0b2" d="M 188.5,96.5 C 193.642,104.736 195.809,113.736 195,123.5C 190.726,116.069 185.893,109.069 180.5,102.5C 180.414,101.504 180.748,100.671 181.5,100C 182.938,99.7811 184.271,99.2811 185.5,98.5C 185.291,97.914 184.957,97.414 184.5,97C 185.878,95.6658 187.211,95.4991 188.5,96.5 Z"/></g>
<g><path style="opacity:1" fill="#805e63" d="M 149.5,87.5 C 157.44,89.6066 164.274,93.6066 170,99.5C 176.018,111.555 178.518,124.221 177.5,137.5C 171.729,132.617 166.895,126.951 163,120.5C 157.935,109.706 153.435,98.7062 149.5,87.5 Z"/></g>
<g><path style="opacity:1" fill="#ebe3d5" d="M 188.5,69.5 C 191.59,68.83 193.257,69.9967 193.5,73C 192.446,78.1651 190.613,82.9985 188,87.5C 184.353,83.0181 180.519,78.6848 176.5,74.5C 180.416,72.4231 184.416,70.7564 188.5,69.5 Z"/></g>
</svg>
